HIERARCHY
ROOT Pelvis
{
	OFFSET -0.001795 -0.223333 0.028219
	CHANNELS 6 Xposition Yposition Zposition Zrotation Yrotation Xrotation 
	JOINT Left_hip
	{
		OFFSET 0.069520 -0.091406 -0.006815
		CHANNELS 3 Zrotation Yrotation Xrotation
		JOINT Left_knee
		{
			OFFSET 0.034277 -0.375199 -0.004496
			CHANNELS 3 Zrotation Yrotation Xrotation
			JOINT Left_ankle
			{
				OFFSET -0.013596 -0.397960 -0.043693
				CHANNELS 3 Zrotation Yrotation Xrotation
				JOINT Left_foot
				{
					OFFSET 0.026358 -0.055791 0.119288
					CHANNELS 3 Zrotation Yrotation Xrotation
					End Site
					{
						OFFSET 0.000000 0.000000 0.000000
					}
				}
			}
		}
	}
	JOINT Right_hip
	{
		OFFSET -0.067670 -0.090522 -0.004320
		CHANNELS 3 Zrotation Yrotation Xrotation
		JOINT Right_knee
		{
			OFFSET -0.038290 -0.382569 -0.008850
			CHANNELS 3 Zrotation Yrotation Xrotation
			JOINT Right_ankle
			{
				OFFSET 0.015774 -0.398415 -0.042312
				CHANNELS 3 Zrotation Yrotation Xrotation
				JOINT Right_foot
				{
					OFFSET -0.025372 -0.048144 0.123348
					CHANNELS 3 Zrotation Yrotation Xrotation
					End Site
					{
						OFFSET 0.000000 0.000000 0.000000
					}
				}
			}
		}
	}
	JOINT Spine1
	{
		OFFSET -0.002533 0.108963 -0.026696
		CHANNELS 3 Zrotation Yrotation Xrotation
		JOINT Spine2
		{
			OFFSET 0.005487 0.135180 0.001092
			CHANNELS 3 Zrotation Yrotation Xrotation
			JOINT Spine3
			{
				OFFSET 0.001457 0.052922 0.025425
				CHANNELS 3 Zrotation Yrotation Xrotation
				JOINT Neck
				{
					OFFSET -0.002778 0.213870 -0.042857
					CHANNELS 3 Zrotation Yrotation Xrotation
					JOINT Head
					{
						OFFSET 0.005152 0.064970 0.051349
						CHANNELS 3 Zrotation Yrotation Xrotation
						End Site
						{
							OFFSET 0.000000 0.000000 0.000000
						}
					}
				}
				JOINT Left_collar
				{
					OFFSET 0.078845 0.121749 -0.034090
					CHANNELS 3 Zrotation Yrotation Xrotation
					JOINT Left_shoulder
					{
						OFFSET 0.090977 0.030469 -0.008868
						CHANNELS 3 Zrotation Yrotation Xrotation
						JOINT Left_elbow
						{
							OFFSET 0.259612 -0.012772 -0.027456
							CHANNELS 3 Zrotation Yrotation Xrotation
							JOINT Left_wrist
							{
								OFFSET 0.249234 0.008986 -0.001171
								CHANNELS 3 Zrotation Yrotation Xrotation
								JOINT Left_palm
								{
									OFFSET 0.084042 -0.008162 -0.014945
									CHANNELS 3 Zrotation Yrotation Xrotation
									End Site
									{
										OFFSET 0.000000 0.000000 0.000000
									}
								}
							}
						}
					}
				}
				JOINT Right_collar
				{
					OFFSET -0.081759 0.118833 -0.038615
					CHANNELS 3 Zrotation Yrotation Xrotation
					JOINT Right_shoulder
					{
						OFFSET -0.096012 0.032551 -0.009143
						CHANNELS 3 Zrotation Yrotation Xrotation
						JOINT Right_elbow
						{
							OFFSET -0.253742 -0.013329 -0.021401
							CHANNELS 3 Zrotation Yrotation Xrotation
							JOINT Right_wrist
							{
								OFFSET -0.255298 0.007772 -0.005559
								CHANNELS 3 Zrotation Yrotation Xrotation
								JOINT Right_palm
								{
									OFFSET -0.084622 -0.006117 -0.010315
									CHANNELS 3 Zrotation Yrotation Xrotation
									End Site
									{
										OFFSET 0.000000 0.000000 0.000000
									}
								}
							}
						}
					}
				}
			}
		}
	}
}
MOTION
Frames: 5
Frame Time: 0.016667
25.042597 -0.397602 103.702858 146.930574 46.199539 41.565450 -66.528707 76.600829 -44.210987 66.810450 57.183145 -24.259076 98.656771 18.715140 76.589449 -63.513119 22.027213 46.260372 61.493216 -66.362830 -37.822584 50.396002 -79.886517 15.405527 -100.752165 -19.558191 62.974795 76.956232 -33.247342 31.863583 90.763971 57.757900 -45.310520 -88.931832 30.017677 -68.067850 -88.938445 -61.246486 26.784091 63.527198 64.300268 37.233362 -82.740038 37.864865 21.687652 90.399672 -4.958961 -50.023112 69.308077 12.265478 -30.284104 -44.315543 -6.694556 -72.299546 -40.502128 58.541144 18.510453 0.000000 0.000000 0.000000 -87.787571 -1.105220 -47.899017 -71.816269 -2.055489 -31.298409 49.612674 -4.710733 -61.366500 70.990352 -45.789942 11.702551 0.000000 0.000000 0.000000 
24.370251 -0.400536 103.630470 9.030386 0.566682 171.104658 -65.025883 79.373974 -46.403935 68.985789 55.476753 -25.855530 98.965845 21.124002 76.931880 -63.984452 21.941286 46.090052 73.947090 -42.975436 -44.359019 67.854346 -80.513518 -11.529205 -100.713497 -16.910080 61.403355 75.582578 -31.833924 33.925897 90.816889 53.811508 -53.349989 -88.922421 30.516012 -68.032218 -88.992215 -59.801958 29.920925 27.659579 69.115780 1.404752 -81.373894 40.066704 22.207361 90.065602 -5.520245 -50.253687 69.814518 11.535988 -31.120719 -43.314238 -6.605192 -72.359461 -39.433348 58.606838 19.094809 0.000000 0.000000 0.000000 -87.089542 -2.087790 -47.065968 -71.684869 -2.115104 -31.131864 49.528900 -4.313515 -62.340937 70.697745 -45.811153 12.135048 0.000000 0.000000 0.000000 
25.230005 -0.397556 102.707848 127.659568 14.821512 54.608928 -54.629230 82.348791 -36.401648 72.436486 52.063769 -26.461555 100.298591 35.071768 80.910924 -64.684605 21.688522 45.124547 76.695922 -9.640301 -48.186827 59.530705 -83.378033 -25.551508 -100.400311 -13.145768 60.364037 75.376432 -30.355806 32.956308 90.922718 43.501115 -61.837062 -88.898521 26.770909 -67.452343 -88.964304 -59.378697 32.359234 58.739805 62.515668 40.004095 -80.800550 39.774192 22.903494 89.152534 -4.499255 -50.558205 69.920154 11.143938 -31.810199 -43.033880 -6.035737 -73.631606 -39.852995 58.744518 19.409865 0.000000 0.000000 0.000000 -86.616405 -3.565498 -47.323206 -70.897300 -2.229282 -30.886620 49.647225 -2.883074 -63.337708 71.220469 -46.044481 12.477430 0.000000 0.000000 0.000000 
25.249887 -0.410318 102.942833 -6.980317 31.023161 -175.400583 -49.104022 84.271003 -32.238353 74.492809 50.898901 -26.534245 101.374706 42.903731 83.118264 -63.690842 19.968629 45.820248 76.093357 14.256489 -47.824055 37.026226 -84.938402 -15.892780 -100.350234 -11.919136 60.139560 75.130495 -28.499092 32.689589 91.384410 36.055158 -67.030531 -88.858980 26.603450 -67.547284 -88.786637 -58.952751 35.398564 63.901096 56.444738 41.649491 -79.054934 42.113430 26.276103 88.842456 -4.915923 -51.758816 70.062456 10.631749 -32.221681 -42.801123 -6.117488 -73.840964 -39.612024 58.720220 19.384095 0.000000 0.000000 0.000000 -86.353476 -4.360960 -47.490681 -70.745581 -2.074384 -30.866282 49.907870 -2.536531 -64.367410 72.017185 -45.763809 13.014272 0.000000 0.000000 0.000000 
25.563595 -0.422850 101.782547 108.689818 -8.868224 72.779942 -31.471444 85.691600 -14.203526 76.805779 49.420472 -25.960194 101.776170 45.842997 83.483341 -64.317412 21.180904 44.534559 69.276254 42.947967 -45.996377 -22.127184 -84.944393 30.653983 -100.119513 -8.722436 61.262634 75.658500 -28.545259 32.318205 91.349618 29.251142 -69.680537 -88.714650 25.034974 -68.150704 -88.798192 -57.991178 36.194461 64.994177 40.616358 46.695592 -78.282940 42.237117 30.737368 88.547500 -4.557319 -52.180547 70.721510 10.040430 -33.094358 -43.601878 -4.741380 -73.782564 -39.991952 58.484172 23.329794 0.000000 0.000000 0.000000 -85.889298 -5.774555 -47.707760 -69.860099 -3.001893 -30.422056 49.773431 -1.193523 -65.446712 72.220926 -45.510976 13.929344 0.000000 0.000000 0.000000 
